<?xml version="1.0" encoding="UTF-8" standalone="no"?>
<svg width="54.353947mm" height="61.030815mm" viewBox="0 0 54.353947 61.030815" version="1.1" id="svg44317" inkscape:version="1.1.2 (0a00cf5339, 2022-02-04)" sodipodi:docname="logo.svg"
   xmlns:inkscape="http://www.inkscape.org/namespaces/inkscape"
   xmlns:sodipodi="http://sodipodi.sourceforge.net/DTD/sodipodi-0.dtd"
   xmlns="http://www.w3.org/2000/svg"
   xmlns:svg="http://www.w3.org/2000/svg">
   <sodipodi:namedview id="namedview44319" pagecolor="#ffffff" bordercolor="#666666" borderopacity="1.0" inkscape:pageshadow="2" inkscape:pageopacity="0.0" inkscape:pagecheckerboard="0" inkscape:document-units="mm" showgrid="false" fit-margin-top="0" fit-margin-left="0" fit-margin-right="0" fit-margin-bottom="0" inkscape:zoom="0.75098906" inkscape:cx="391.48373" inkscape:cy="235.0234" inkscape:window-width="1920" inkscape:window-height="1021" inkscape:window-x="1920" inkscape:window-y="0" inkscape:window-maximized="1" inkscape:current-layer="layer1" />
   <defs id="defs44314" />
   <g inkscape:label="Capa 1" inkscape:groupmode="layer" id="layer1" transform="translate(-1.3667579,-1.7395574)">
      <g id="g44280" transform="translate(-29.617994,-71.568932)">
         <path style="fill:#a2c9bc;fill-opacity:1;stroke:#a2c9bc;stroke-width:0.264583px;stroke-linecap:butt;stroke-linejoin:miter;stroke-opacity:1" d="m 31.434016,99.269313 c 0,0 2.263234,2.065507 2.729415,3.458017 0.442654,1.32223 -0.532506,2.85898 -0.09236,4.18205 0.665651,2.00093 3.900625,4.9806 3.900625,4.9806 0,0 -0.80953,-2.54557 -0.974904,-3.8634 -0.154977,-1.23498 0.315646,-2.53249 -0.0093,-3.73399 -0.887917,-3.03334 -2.49115,-4.371263 -5.553476,-5.023277 z" id="path23793" sodipodi:nodetypes="caacscc" />
         <path style="fill:#a2c9bc;fill-opacity:1;stroke:#a2c9bc;stroke-width:0.264583px;stroke-linecap:butt;stroke-linejoin:miter;stroke-opacity:1" d="m 35.386195,91.720084 c 0.422785,3.150777 3.583056,6.595599 4.353242,9.288096 0.545945,4.00466 -0.519776,5.40052 1.099411,8.96829 0,0 2.427707,-5.4203 2.321723,-8.28705 -0.05606,-1.51632 -0.692367,-3.027777 -1.548337,-4.280643 -4.778059,-3.89291 -4.042784,-3.8437 -6.226039,-5.688693 z" id="path23795" sodipodi:nodetypes="cccacc" />
         <path style="fill:#30987d;fill-opacity:1;stroke:#30987d;stroke-width:0.264583px;stroke-linecap:butt;stroke-linejoin:miter;stroke-opacity:1" d="m 41.758356,73.35367 c 0,0 -2.339542,6.438431 -1.889585,9.71606 0.79249,6.457994 8.876927,6.797308 9.771247,12.346932 -0.450599,7.830048 -6.905049,10.368328 -6.686335,19.830628 1.588797,6.92665 5.703526,11.20322 10.617022,15.64629 -3.649525,-7.42687 -6.192507,-11.22656 -5.25133,-19.37217 0.261994,-4.77253 3.912194,-10.59631 3.504951,-15.280107 -0.81381,-6.139704 -6.012314,-9.010796 -8.687594,-13.826009 -1.347914,-2.847528 -1.363796,-5.86954 -1.378376,-9.061624 z" id="path23797" sodipodi:nodetypes="ccccccccc" />
         <path style="fill:#a2c9bc;fill-opacity:1;stroke:#a2c9bc;stroke-width:0.264583px;stroke-linecap:butt;stroke-linejoin:miter;stroke-opacity:1" d="m 51.215848,134.20738 c 5.516514,-0.4112 9.386566,-1.67401 13.059113,-5.87014 2.519462,-3.28332 3.301998,-7.90407 1.883749,-11.58223 -1.643997,-3.34278 -5.215715,-5.59003 -8.737965,-5.00383 -3.631747,1.13894 -4.875804,3.32622 -5.136872,6.82398 -0.07403,1.34949 0.535739,4.01902 0.535739,4.01902 0,0 0.757216,-3.56972 1.8586,-4.94281 2.973574,-2.66004 6.952864,-1.02196 8.196452,2.3349 0.857166,3.45499 -0.344233,7.22511 -2.51157,9.82677 -2.873918,3.20139 -5.237624,3.21217 -9.147251,4.39434 z" id="path23799" sodipodi:nodetypes="ccccccccccc" />
         <path style="fill:#30987d;fill-opacity:1;stroke:#30987d;stroke-width:0.264583px;stroke-linecap:butt;stroke-linejoin:miter;stroke-opacity:1" d="m 55.234172,130.48309 c 0,0 -0.455872,-3.55644 -0.143749,-5.08431 0.405715,-1.98601 2.350067,-2.99055 3.019723,-4.90377 0.28801,-0.82285 -0.09386,-2.37109 -0.09386,-2.37109 1.971681,0.88481 1.947539,3.3781 1.542015,5.01366 -2.416694,3.6884 -4.324128,7.34551 -4.324129,7.34551 z" id="path23801" sodipodi:nodetypes="cssccc" />
         <path style="fill:#30987d;fill-opacity:1;stroke:#30987d;stroke-width:0.264583px;stroke-linecap:butt;stroke-linejoin:miter;stroke-opacity:1" d="m 51.35031,123.13074 c -1.412806,-5.68206 -2.313535,-9.40968 0.08055,-14.7358 3.012245,-7.29594 11.339663,-13.435067 14.241267,-19.966008 0.914034,-2.428961 0.703789,-7.753868 0.703789,-7.753868 2.03814,2.374058 1.606009,9.052626 0.968441,11.630781 -1.720114,5.955481 -8.216735,10.754575 -12.009334,15.182035 -5.766785,8.41281 -3.648287,12.35062 -3.984713,15.64286 z" id="path23803" sodipodi:nodetypes="ccccccc" />
         <path style="fill:#a2c9bc;fill-opacity:1;stroke:#a2c9bc;stroke-width:0.264583px;stroke-linecap:butt;stroke-linejoin:miter;stroke-opacity:1" d="m 68.568164,98.057791 c 2.120515,-1.221589 6.94681,-2.375201 6.94681,-2.375201 4.391766,-1.227554 5.675513,-2.8554 8.217633,-6.734387 -2.379046,5.348025 -4.069806,9.093577 -9.580824,11.453117 -1.905164,0.76028 -4.139598,0.22637 -6.095606,0.84419 -2.055077,0.64912 -5.751851,2.9527 -5.751851,2.9527 0.139922,-2.8516 4.294779,-5.005648 6.263838,-6.140419 z" id="path23805" sodipodi:nodetypes="ccccscc" />
         <path style="fill:#a2c9bc;fill-opacity:1;stroke:#a2c9bc;stroke-width:0.264583px;stroke-linecap:butt;stroke-linejoin:miter;stroke-opacity:1" d="m 67.237464,104.06821 c 0,0 4.551522,-1.04737 6.769245,-1.01416 1.777266,0.0266 3.411123,1.18791 5.188522,1.17255 2.169439,-0.0188 6.053587,-1.88093 6.053587,-1.88093 0,0 -3.6391,3.36956 -6.028299,4.1344 -4.394235,0.67603 -5.080386,-0.95805 -8.302421,-2.08764 -1.169493,-0.38626 -3.680634,-0.32418 -3.680634,-0.32418 z" id="path23807" sodipodi:nodetypes="cssccccc" />
         <path style="fill:#30987d;fill-opacity:1;stroke:#30987d;stroke-width:0.264583px;stroke-linecap:butt;stroke-linejoin:miter;stroke-opacity:1" d="m 55.696143,90.175947 c -1.065592,0.0059 -2.558757,1.359254 -2.584417,2.424554 -0.02994,1.243061 1.272249,2.693223 2.515575,2.67775 1.140907,-0.0142 2.680481,-1.454737 2.632466,-2.594722 -0.04878,-1.158122 -1.404493,-2.514036 -2.563624,-2.507582 z" id="path23885" sodipodi:nodetypes="sssss" />
      </g>
   </g>
</svg>
